<?xml version="1.0" standalone="no"?>
<!DOCTYPE svg PUBLIC "-//W3C//DTD SVG 20010904//EN"
 "http://www.w3.org/TR/2001/REC-SVG-20010904/DTD/svg10.dtd">
<svg version="1.0" xmlns="http://www.w3.org/2000/svg"
 width="873.000000pt" height="873.000000pt" viewBox="0 0 873.000000 873.000000"
 preserveAspectRatio="xMidYMid meet">

<g transform="translate(0.000000,873.000000) scale(0.100000,-0.100000)"
fill="#000000" stroke="none">
<path d="M4110 8329 c-114 -7 -160 -12 -360 -39 -64 -9 -119 -19 -215 -40 -27
-6 -65 -14 -83 -17 -18 -3 -35 -9 -38 -14 -3 -5 -16 -9 -29 -9 -13 0 -27 -4
-30 -10 -3 -5 -19 -10 -35 -10 -16 0 -39 -4 -52 -9 -13 -5 -57 -19 -98 -31
-41 -12 -84 -26 -95 -30 -11 -4 -36 -13 -55 -20 -19 -7 -44 -16 -55 -20 -11
-5 -40 -16 -65 -25 -25 -9 -61 -23 -80 -32 -19 -8 -44 -19 -55 -23 -65 -27
-287 -138 -322 -162 -23 -15 -44 -28 -47 -28 -4 0 -36 -18 -72 -40 -36 -22
-68 -40 -71 -40 -7 0 -121 -78 -188 -129 -33 -25 -76 -57 -95 -70 -147 -102
-585 -518 -694 -659 -22 -30 -56 -72 -74 -95 -18 -23 -62 -85 -97 -138 -35
-52 -79 -115 -97 -140 -18 -24 -40 -57 -48 -74 -8 -16 -27 -49 -42 -72 -15
-23 -28 -45 -28 -48 0 -4 -8 -19 -19 -33 -25 -36 -90 -163 -125 -242 -16 -36
-44 -99 -64 -140 -19 -41 -38 -84 -42 -95 -8 -21 -20 -51 -38 -95 -5 -14 -15
-41 -22 -60 -7 -19 -16 -44 -21 -55 -19 -46 -48 -138 -69 -225 -5 -19 -14 -53
-20 -75 -6 -22 -16 -59 -21 -82 -5 -24 -14 -64 -19 -90 -11 -48 -22 -114 -41
-233 -10 -67 -18 -123 -40 -295 -26 -202 -15 -708 21 -925 6 -36 15 -92 20
-125 16 -106 39 -213 80 -372 5 -21 12 -51 15 -68 8 -40 25 -105 35 -130 4
-11 13 -40 20 -65 6 -25 16 -53 21 -62 5 -10 9 -23 9 -28 0 -6 9 -30 20 -52
11 -23 20 -50 20 -59 0 -10 5 -21 10 -24 6 -3 10 -14 10 -24 0 -10 14 -47 31
-82 18 -35 35 -73 39 -84 4 -11 17 -40 30 -65 13 -25 31 -63 42 -85 10 -22 24
-49 29 -59 6 -10 29 -53 52 -95 22 -42 53 -95 69 -118 15 -23 28 -45 28 -50 0
-4 18 -32 40 -61 22 -29 40 -55 40 -58 0 -20 170 -248 279 -374 242 -281 593
-580 867 -740 60 -35 141 -82 179 -105 170 -100 604 -291 780 -342 508 -149
901 -202 1395 -190 373 10 688 60 1060 171 96 28 299 100 345 121 17 7 64 27
105 43 83 33 380 184 479 244 34 21 65 38 68 38 19 0 288 192 448 321 116 93
425 395 482 471 15 20 58 74 94 120 58 74 156 210 184 256 6 9 26 42 46 72 19
30 55 91 79 135 23 44 46 85 51 90 10 13 149 292 149 299 0 4 9 28 21 54 46
103 103 267 157 447 74 250 126 525 153 814 17 180 14 585 -5 781 -43 449
-158 897 -320 1252 -14 30 -34 77 -45 105 -64 164 -282 541 -402 696 -22 29
-59 77 -82 107 -141 187 -381 442 -547 581 -150 126 -256 209 -266 209 -3 0
-25 17 -49 38 -23 20 -55 44 -71 52 -16 8 -51 32 -79 52 -27 21 -54 38 -59 38
-5 0 -17 7 -26 15 -24 22 -419 225 -438 225 -5 0 -38 14 -73 31 -76 37 -90 43
-149 63 -25 8 -72 25 -105 37 -33 12 -75 26 -92 30 -44 12 -117 33 -213 60
-101 29 -259 63 -370 80 -280 41 -659 56 -950 38z m605 -79 c1044 -87 1982
-559 2652 -1335 93 -107 273 -341 273 -354 0 -3 -192 -6 -428 -7 -533 -1 -997
-33 -1446 -99 l-160 -23 -45 48 c-88 94 -206 120 -306 68 -57 -29 -150 -123
-185 -185 -19 -34 -30 -43 -60 -48 -30 -5 -421 23 -683 49 -47 5 -255 90 -412
168 -99 50 -243 133 -402 232 -292 181 -444 233 -650 224 -160 -8 -283 -56
-529 -211 -66 -41 -149 -91 -185 -110 l-64 -35 -92 52 c-119 68 -178 87 -284
93 -142 8 -266 -35 -476 -168 -51 -32 -93 -55 -93 -50 0 22 152 217 301 386
481 546 1091 937 1790 1148 251 76 570 137 818 156 155 12 527 12 666 1z
m-1590 -1355 c44 -15 105 -40 137 -56 54 -27 85 -46 353 -209 66 -41 196 -111
288 -158 93 -46 167 -85 165 -87 -2 -1 -84 2 -183 6 -393 19 -766 28 -1085 26
l-336 -1 -89 48 c-110 59 -227 128 -223 131 2 1 95 58 208 126 310 186 374
210 560 205 106 -2 137 -7 205 -31z m-1332 -190 c66 -17 154 -60 247 -119 36
-23 116 -71 178 -107 l114 -64 -214 -7 c-323 -11 -901 -38 -1008 -48 -52 -5
-96 -7 -98 -5 -25 24 268 226 443 306 131 59 230 72 338 44z m3640 -226 c9 -6
15 -14 12 -19 -3 -5 0 -12 6 -16 8 -4 9 -3 5 4 -4 7 -3 12 1 12 14 0 79 -72
96 -105 18 -36 56 -162 58 -190 0 -11 3 -101 5 -199 5 -156 3 -178 -9 -168
-12 10 -16 9 -21 -5 -4 -10 -2 -19 3 -21 6 -2 11 -8 11 -13 0 -6 -4 -7 -10 -4
-6 3 -7 -1 -4 -9 3 -9 1 -16 -6 -16 -6 0 -9 -8 -7 -17 3 -10 8 -35 12 -55 10
-61 44 -46 46 20 1 19 8 5 24 -43 30 -89 32 -183 5 -243 -21 -47 -116 -152
-134 -149 -6 1 -22 18 -35 37 -35 51 -132 149 -164 166 -16 9 -35 13 -42 10
-8 -3 -15 0 -18 7 -2 7 -9 2 -16 -10 -10 -19 -9 -22 4 -17 8 4 15 1 15 -6 0
-7 29 -43 64 -81 74 -78 142 -203 131 -241 -4 -16 -4 -19 3 -9 7 10 16 -12 31
-76 11 -50 21 -99 21 -109 0 -11 20 -77 45 -149 47 -133 63 -232 51 -299 -5
-24 -12 -36 -24 -37 -14 0 -13 -2 3 -8 16 -7 13 -9 -18 -15 l-37 -7 17 -32
c27 -50 21 -144 -11 -212 -55 -112 -204 -183 -322 -154 -64 16 -75 21 -170 90
-44 32 -118 79 -165 106 l-84 48 -11 55 -11 55 58 61 c32 34 61 74 64 90 4 16
8 34 10 41 8 25 -18 74 -47 89 -129 67 -368 -26 -368 -143 0 -51 60 -107 138
-128 31 -9 62 -18 69 -20 6 -2 15 -29 18 -59 7 -55 6 -57 -46 -140 -30 -47
-74 -122 -99 -168 -83 -153 -172 -218 -299 -218 -148 0 -262 126 -249 274 3
28 3 46 1 39 -2 -7 -10 -11 -16 -9 -7 1 -9 1 -4 -1 14 -8 7 -21 -14 -26 -26
-7 -40 6 -67 59 -30 59 -42 109 -52 226 -10 102 -28 192 -66 323 -27 91 -24
281 4 359 33 90 27 130 -17 107 -25 -14 -58 -83 -73 -153 -11 -54 -14 -58 -40
-58 -24 0 -27 -2 -16 -14 7 -8 15 -10 16 -5 10 26 22 3 22 -40 l0 -49 -61 14
c-104 24 -181 82 -214 159 -7 19 -23 80 -34 137 -18 89 -33 128 -111 283 -91
183 -120 267 -120 348 0 58 19 149 30 142 4 -3 6 4 3 15 -4 16 7 33 42 67 l48
45 66 -4 c48 -3 82 -12 126 -34 33 -17 59 -35 58 -41 -1 -6 5 -10 15 -9 9 0
16 -4 15 -10 -1 -7 5 -11 15 -10 9 0 16 -5 14 -12 -1 -8 2 -11 7 -7 15 9 190
-147 184 -164 -2 -3 3 -6 10 -6 6 -1 11 -6 10 -13 -2 -7 1 -11 6 -9 11 3 96
-94 157 -178 44 -63 46 -67 29 -85 -11 -13 -15 -25 -10 -37 5 -10 8 -21 7 -24
-3 -15 69 10 109 38 79 54 212 121 294 147 130 41 196 48 390 45 l180 -4 3 28
c3 22 -1 30 -17 34 -25 6 -25 -4 -1 140 46 269 142 504 258 635 39 44 120 80
162 73 19 -4 43 -11 53 -16z m2284 -34 c42 -48 253 -437 253 -468 0 -10 -44
-16 -187 -26 -577 -38 -926 -93 -1089 -173 -209 -102 -288 -312 -264 -706 38
-625 120 -1359 176 -1577 46 -177 159 -269 329 -267 38 0 185 18 325 41 376
60 1006 138 1018 127 2 -3 1 -25 -2 -50 -7 -44 -8 -45 -49 -50 -23 -3 -139
-17 -257 -32 -118 -14 -296 -39 -395 -55 -387 -63 -501 -104 -551 -201 -13
-27 -30 -48 -37 -48 -6 0 -98 16 -204 36 -159 31 -195 35 -207 24 -22 -17 -20
-37 4 -50 11 -6 177 -44 368 -85 191 -41 435 -95 542 -120 246 -58 474 -113
522 -126 l37 -10 -29 -62 c-16 -34 -45 -98 -65 -142 -70 -155 -184 -346 -343
-572 -85 -122 -85 -122 -131 -128 -190 -24 -421 -95 -560 -171 -165 -90 -373
-273 -485 -426 -38 -52 -61 -75 -71 -72 -20 8 -46 -19 -34 -37 8 -14 10 -12
13 13 1 13 26 24 26 11 0 -4 -9 -19 -19 -32 l-19 -24 -11 22 c-9 16 -9 26 -2
35 9 10 -9 14 -87 19 -53 4 -125 12 -159 18 l-63 11 0 227 c0 376 25 725 70
986 39 218 92 366 186 517 72 115 102 186 108 256 20 219 -109 1825 -179 2240
-52 303 -159 445 -403 532 l-87 31 -1 157 c-1 140 -4 165 -27 235 -17 55 -22
79 -14 82 24 8 329 46 517 64 449 45 805 61 1215 55 l300 -4 22 -25z m-5277
-99 c0 -2 -51 -20 -112 -40 -123 -38 -259 -100 -314 -143 -76 -57 -82 -129
-16 -183 48 -40 113 -63 291 -106 373 -88 579 -190 640 -317 45 -93 19 -216
-68 -322 -86 -106 -208 -195 -466 -340 -250 -139 -334 -195 -425 -285 -118
-117 -153 -183 -158 -305 -3 -78 -1 -99 21 -157 82 -216 326 -415 717 -583 36
-16 69 -32 74 -36 4 -4 -10 -31 -32 -61 -22 -29 -56 -82 -76 -118 -38 -70
-101 -249 -112 -318 -6 -39 -14 -48 -78 -96 -39 -30 -93 -76 -120 -104 -47
-49 -50 -50 -72 -35 -13 8 -31 13 -39 9 -20 -7 -20 -65 0 -72 21 -9 19 -19
-25 -121 -63 -147 -110 -366 -110 -518 l0 -51 -44 -12 c-55 -14 -107 -64 -124
-118 -7 -21 -15 -79 -19 -129 -12 -187 47 -297 173 -323 35 -7 42 -14 66 -64
37 -78 73 -102 146 -96 31 3 64 8 74 12 14 6 17 -3 23 -71 10 -124 34 -285 54
-365 10 -40 18 -74 16 -76 -2 -2 -47 24 -102 58 -753 473 -1319 1200 -1592
2044 -132 410 -229 949 -219 1225 3 97 4 102 56 203 121 240 337 435 663 599
179 89 290 134 578 231 255 86 336 120 406 168 81 56 104 122 68 197 -32 68
-125 114 -419 206 -137 43 -208 76 -260 121 -173 148 21 313 524 447 62 17
141 34 175 38 66 9 237 14 237 7z m1380 -17 c231 -10 843 -53 929 -65 l44 -7
-134 -47 c-283 -99 -532 -230 -724 -381 l-66 -52 -27 24 c-15 13 -52 47 -82
75 -71 65 -166 129 -249 167 -90 41 -207 49 -268 19 -118 -61 -182 -222 -154
-389 18 -105 60 -217 125 -332 30 -53 62 -121 71 -151 l17 -56 -71 -129 c-176
-322 -326 -721 -441 -1175 -39 -156 -57 -211 -75 -229 l-23 -23 -103 42 c-344
141 -585 321 -675 504 -36 74 -39 86 -39 165 0 75 4 93 29 141 57 110 203 229
446 365 310 174 403 236 511 345 83 83 132 168 148 255 19 101 -26 223 -109
298 -53 48 -188 122 -293 162 -62 23 -103 34 -338 89 -165 39 -249 78 -249
116 0 62 200 157 500 238 63 18 131 36 150 42 42 12 798 5 1150 -11z m-1941
-2 c-2 -1 -35 -13 -74 -25 -105 -35 -284 -126 -337 -172 -114 -99 -117 -233
-6 -323 72 -58 184 -106 443 -187 160 -51 235 -102 235 -162 0 -60 -129 -128
-446 -234 -335 -112 -562 -208 -729 -309 -199 -120 -391 -292 -483 -431 -26
-40 -53 -80 -59 -91 -11 -15 -12 -10 -8 32 46 485 100 760 215 1105 67 203
184 476 273 640 l62 115 45 2 c25 2 155 10 290 18 268 18 573 32 579 28 2 -2
2 -4 0 -6z m3111 -115 c0 -5 -12 -37 -26 -73 -15 -35 -36 -100 -48 -144 l-21
-79 -110 -13 c-309 -35 -554 -93 -724 -174 -57 -27 -107 -49 -111 -49 -15 0
-20 33 -8 47 6 8 73 55 147 105 213 142 547 296 791 363 95 26 110 29 110 17z
m3072 -427 c48 -114 140 -395 179 -544 39 -149 94 -476 114 -671 30 -287 18
-639 -31 -963 -14 -93 -20 -110 -38 -117 -11 -4 -111 -17 -221 -29 -173 -18
-702 -90 -995 -136 -160 -25 -220 -18 -288 33 -41 30 -68 71 -87 137 -56 182
-166 1170 -182 1623 -8 217 5 316 53 412 80 158 208 220 559 269 277 38 739
81 844 78 l55 -2 38 -90z m-3193 -12 c-18 -99 -3 -89 -151 -97 -218 -11 -299
-31 -531 -129 l-107 -46 -37 55 c-20 30 -34 56 -32 58 19 18 276 114 368 137
119 31 356 66 447 68 l51 1 -8 -47z m903 -2 c85 -29 118 -49 184 -113 99 -94
135 -193 179 -488 53 -351 155 -1673 155 -2008 0 -137 -1 -142 -101 -308 -109
-181 -154 -310 -198 -565 -38 -223 -71 -682 -71 -1001 0 -143 -3 -178 -13
-178 -8 0 -56 9 -108 20 -52 11 -150 32 -219 46 -119 25 -609 147 -772 192
-286 80 -955 295 -1022 329 l-29 15 6 381 c6 381 20 585 52 757 21 112 52 224
71 262 l16 31 23 -57 c30 -75 39 -84 110 -118 33 -16 71 -36 85 -43 36 -21
103 -18 153 5 83 39 159 140 242 320 16 36 30 66 31 68 1 2 217 -29 221 -33 2
-1 -7 -28 -19 -61 -31 -83 -31 -201 0 -265 26 -53 125 -142 191 -172 91 -40
229 -9 314 71 44 42 120 149 167 237 24 44 44 81 45 83 1 1 76 -7 166 -19 178
-23 256 -20 324 10 55 25 103 76 134 141 24 51 26 68 29 215 6 278 -72 1290
-129 1660 -32 211 -96 343 -200 412 -33 21 -42 36 -59 90 -18 59 -25 103 -17
103 2 0 29 -9 59 -19z m-142 -39 c0 -10 -7 -19 -15 -19 -18 0 -19 9 -3 25 16
16 18 15 18 -6z m-10 -67 c0 -18 -4 -23 -15 -19 -25 10 -19 33 13 43 1 1 2
-10 2 -24z m-2270 -710 c7 -24 23 -59 36 -76 23 -31 23 -32 5 -58 -56 -79
-178 -348 -238 -526 -154 -452 -140 -658 48 -729 52 -19 404 -90 535 -107 75
-10 98 -10 124 1 54 23 65 59 106 379 l6 44 28 -50 c28 -48 78 -96 128 -122
31 -16 22 -43 -33 -101 -66 -70 -91 -109 -134 -206 -22 -50 -60 -120 -85 -157
-96 -143 -151 -374 -176 -737 -7 -115 -24 -716 -20 -772 0 -4 -12 -3 -27 3
-18 7 -30 6 -37 -1 -15 -15 -30 -12 -17 4 10 11 -4 21 -75 55 -69 33 -89 39
-97 29 -7 -10 -8 -9 -4 3 3 9 1 21 -3 25 -5 5 -19 59 -30 119 -96 504 -280
855 -522 993 -94 54 -226 75 -327 51 -24 -5 -46 -7 -49 -5 -8 9 28 136 60 214
44 107 115 208 195 282 l71 65 32 140 c62 273 186 662 280 879 70 163 190 406
199 406 5 0 14 -20 21 -45z m280 -234 c41 -12 77 -24 81 -28 3 -5 14 -37 23
-73 9 -36 25 -96 36 -135 10 -38 19 -93 19 -121 2 -105 29 -226 72 -311 l41
-83 -12 -97 c-20 -166 -48 -325 -59 -336 -19 -19 -563 85 -623 120 -62 36 -73
63 -72 176 1 121 37 272 116 487 46 125 169 394 204 448 l15 23 43 -25 c24
-14 76 -34 116 -45z m1164 -126 c-1 -16 -64 -43 -116 -50 -39 -6 -49 -4 -54 9
-8 21 -4 25 43 42 42 15 129 15 127 -1z m934 -356 c29 -34 49 -66 45 -72 -3
-6 -1 -7 5 -3 6 3 37 -18 69 -49 48 -46 56 -57 43 -66 -12 -8 -10 -9 8 -4 19
6 23 3 20 -12 -2 -10 2 -17 9 -16 18 4 53 -46 46 -65 -4 -13 -3 -14 5 -3 8 11
13 8 27 -13 15 -22 18 -62 23 -279 4 -188 2 -263 -8 -291 -14 -44 -62 -101
-101 -122 -46 -23 -212 -18 -379 12 -244 44 -246 43 -363 -147 -110 -179 -257
-238 -341 -138 -103 122 42 434 257 553 69 38 138 60 242 76 79 12 106 30 85
54 -17 21 -125 21 -205 1 -148 -38 -278 -124 -360 -238 -22 -31 -47 -56 -55
-57 -34 -1 -264 41 -275 50 -17 14 -93 207 -100 255 -6 40 -6 40 39 59 40 16
54 17 109 7 186 -32 413 18 580 129 62 41 81 48 138 53 175 16 321 130 349
275 6 31 13 69 16 85 3 15 9 27 13 27 4 0 31 -27 59 -61z m-881 -104 c20 -8
79 -46 132 -83 53 -38 111 -77 129 -87 17 -11 32 -23 32 -27 0 -12 -162 -87
-235 -109 -74 -21 -263 -37 -310 -25 -27 7 -27 7 -9 34 10 15 49 83 87 152 37
69 75 133 84 142 20 22 43 23 90 3z m-493 -482 c2 -10 8 -34 11 -53 4 -19 21
-68 37 -109 l29 -73 -39 -42 c-21 -23 -60 -84 -88 -136 -80 -154 -165 -222
-242 -194 -51 18 -67 56 -66 157 0 81 4 100 31 158 65 141 135 226 228 280 57
33 91 37 99 12z m3870 -510 c-34 -124 -134 -422 -143 -428 -5 -2 -91 16 -192
41 -101 25 -317 75 -479 110 -162 36 -300 70 -307 76 -28 23 -4 67 54 97 39
20 303 80 487 111 178 30 526 77 578 79 l26 1 -24 -87z m-5462 -220 c162 -51
337 -274 438 -558 69 -195 157 -618 147 -706 -7 -62 -34 -89 -88 -89 -62 0
-67 7 -170 232 -29 64 -46 91 -50 80 -4 -13 -7 -11 -11 8 -3 14 -9 34 -13 44
-7 15 -5 17 5 11 10 -6 12 -4 6 11 -4 10 -14 39 -23 64 -28 84 -82 192 -93
185 -6 -4 -7 1 -3 11 4 12 3 15 -5 10 -7 -4 -10 -2 -7 6 5 13 -67 130 -109
177 -35 39 -124 101 -184 129 -68 31 -179 41 -249 22 -63 -17 -146 -77 -138
-98 3 -9 3 -13 -1 -9 -9 9 -44 -22 -44 -40 0 -7 -4 -13 -10 -13 -24 0 -70
-147 -95 -305 l-13 -80 -1 96 c-2 227 76 486 192 638 123 160 337 232 519 174z
m-87 -443 c3 -6 -1 -7 -9 -4 -18 7 -21 14 -7 14 6 0 13 -4 16 -10z m-355 -184
c0 -2 -8 -10 -17 -17 -16 -13 -17 -12 -4 4 13 16 21 21 21 13z m548 -38 l12
-33 -20 25 c-21 27 -25 40 -12 40 4 0 13 -15 20 -32z m132 -283 c0 -8 -4 -15
-10 -15 -5 0 -7 7 -4 15 4 8 8 15 10 15 2 0 4 -7 4 -15z m-1037 -162 c4 -82
10 -177 13 -212 l7 -64 -29 7 c-70 18 -97 78 -98 216 0 99 15 152 51 180 47
37 50 31 56 -127z m732 -80 c40 -40 73 -113 103 -222 23 -87 25 -115 26 -291
1 -219 -12 -295 -65 -388 -132 -232 -314 270 -244 674 24 136 87 254 136 254
9 0 29 -12 44 -27z m960 -13 c3 -5 2 -10 -4 -10 -5 0 -13 5 -16 10 -3 6 -2 10
4 10 5 0 13 -4 16 -10z m3743 -142 c-132 -169 -422 -425 -708 -625 -139 -98
-370 -236 -379 -228 -12 13 112 234 188 336 92 122 247 275 346 340 163 108
435 215 558 218 l29 1 -34 -42z m-4038 -8 c0 -21 -24 -28 -35 -10 -3 6 1 7 9
4 11 -4 16 0 16 10 0 9 2 16 5 16 3 0 5 -9 5 -20z m2970 -594 c0 -3 -4 -8 -10
-11 -5 -3 -10 -1 -10 4 0 6 5 11 10 11 6 0 10 -2 10 -4z m-2400 -246 c8 -5 11
-10 5 -10 -5 0 -17 5 -25 10 -8 5 -10 10 -5 10 6 0 17 -5 25 -10z m2270 -17
c0 -14 -3 -23 -7 -20 -3 4 -12 2 -20 -4 -8 -7 -13 -8 -13 -1 0 5 7 12 15 16 8
3 15 12 15 21 0 8 2 15 5 15 3 0 5 -12 5 -27z m-2500 -23 c-12 -8 -12 -10 -1
-10 8 0 12 -3 8 -6 -3 -3 -16 -2 -29 2 -22 7 -22 7 -3 15 28 11 43 10 25 -1z
m2407 -36 c-3 -3 -12 -4 -19 -1 -8 3 -5 6 6 6 11 1 17 -2 13 -5z m48 -4 c-3
-5 -12 -10 -18 -10 -7 0 -6 4 3 10 19 12 23 12 15 0z m-2215 -180 c135 -56
313 -129 395 -162 83 -34 155 -66 160 -71 14 -13 -360 -1 -510 17 -207 25
-422 61 -496 82 -14 4 -9 16 26 70 23 35 53 96 65 134 l22 69 47 -19 c25 -10
156 -64 291 -120z m370 109 c0 -14 -16 -11 -29 5 -10 12 -8 13 8 9 12 -3 21
-9 21 -14z m-105 -109 c3 -6 -1 -7 -9 -4 -18 7 -21 14 -7 14 6 0 13 -4 16 -10z
m705 -170 c-19 -12 -40 -13 -40 -1 0 9 40 20 50 13 2 -2 -2 -7 -10 -12z m55
-10 c-3 -5 -11 -10 -16 -10 -6 0 -7 5 -4 10 3 6 11 10 16 10 6 0 7 -4 4 -10z"/>
<path d="M5248 6293 c-14 -16 -29 -38 -33 -50 -3 -13 -12 -23 -18 -23 -19 0
-55 -64 -84 -147 -49 -145 -42 -407 14 -522 38 -78 79 -32 49 55 -47 140 -44
329 10 509 37 126 44 144 72 176 30 37 24 38 -10 2z"/>
<path d="M5554 6256 c0 -22 1 -32 4 -22 4 18 5 18 18 -5 10 -17 13 -19 14 -7
0 9 -4 20 -10 23 -5 3 -10 15 -10 25 0 39 -15 26 -16 -14z"/>
<path d="M5580 6134 c0 -8 5 -12 10 -9 6 3 10 10 10 16 0 5 -4 9 -10 9 -5 0
-10 -7 -10 -16z"/>
<path d="M5562 6070 c0 -19 2 -27 5 -17 2 9 2 25 0 35 -3 9 -5 1 -5 -18z"/>
<path d="M3517 5835 c3 -8 9 -12 14 -9 12 7 11 11 -5 17 -10 4 -13 1 -9 -8z"/>
<path d="M3525 5789 c86 -78 130 -126 180 -195 72 -99 135 -250 135 -326 0
-15 7 -33 15 -42 8 -8 12 -21 9 -29 -3 -8 2 -17 11 -21 13 -5 15 -2 9 16 -6
19 -4 21 7 11 12 -9 15 -3 17 38 6 94 -63 282 -140 383 -79 103 -193 201 -225
194 -10 -3 -31 2 -48 10 -21 11 -13 -1 30 -39z"/>
<path d="M3241 5634 c0 -11 3 -14 6 -6 3 7 2 16 -1 19 -3 4 -6 -2 -5 -13z"/>
<path d="M3251 5594 c0 -11 3 -14 6 -6 3 7 2 16 -1 19 -3 4 -6 -2 -5 -13z"/>
<path d="M3220 5570 c0 -5 5 -10 11 -10 5 0 7 5 4 10 -3 6 -8 10 -11 10 -2 0
-4 -4 -4 -10z"/>
<path d="M3260 5565 c0 -5 5 -17 10 -25 5 -8 10 -10 10 -5 0 6 -5 17 -10 25
-5 8 -10 11 -10 5z"/>
<path d="M3262 5490 c0 -19 2 -27 5 -17 2 9 2 25 0 35 -3 9 -5 1 -5 -18z"/>
<path d="M4761 5503 c7 -12 15 -20 18 -17 3 2 -3 12 -13 22 -17 16 -18 16 -5
-5z"/>
<path d="M5220 5470 c-8 -5 -10 -10 -5 -10 6 0 17 5 25 10 8 5 11 10 5 10 -5
0 -17 -5 -25 -10z"/>
<path d="M4232 5340 c0 -19 2 -27 5 -17 2 9 2 25 0 35 -3 9 -5 1 -5 -18z"/>
<path d="M3921 5284 c0 -11 3 -14 6 -6 3 7 2 16 -1 19 -3 4 -6 -2 -5 -13z"/>
<path d="M4237 5259 c4 -13 8 -18 11 -10 2 7 -1 18 -6 23 -8 8 -9 4 -5 -13z"/>
<path d="M3431 5204 c0 -11 3 -14 6 -6 3 7 2 16 -1 19 -3 4 -6 -2 -5 -13z"/>
<path d="M4813 5130 c0 -36 2 -50 4 -32 2 17 2 47 0 65 -2 17 -4 3 -4 -33z"/>
<path d="M3441 5154 c0 -11 3 -14 6 -6 3 7 2 16 -1 19 -3 4 -6 -2 -5 -13z"/>
<path d="M3835 5149 c-4 -6 -4 -13 -1 -16 3 -4 6 -1 6 6 0 7 5 9 12 5 7 -4 8
-3 4 4 -9 15 -13 15 -21 1z"/>
<path d="M5165 4999 c-48 -23 -71 -102 -49 -163 8 -23 16 -47 18 -55 1 -8 9
-16 17 -17 8 -2 32 -9 54 -15 35 -10 46 -9 79 6 54 26 71 57 71 131 0 36 -4
60 -9 57 -5 -4 -6 2 -2 13 4 10 4 15 0 12 -3 -4 -21 4 -39 17 -34 27 -101 33
-140 14z m128 -61 c12 -35 -34 -63 -61 -36 -16 16 -15 33 4 52 17 17 48 8 57
-16z"/>
<path d="M3516 4955 c4 -8 11 -15 16 -15 6 0 5 6 -2 15 -7 8 -14 15 -16 15 -2
0 -1 -7 2 -15z"/>
<path d="M4631 4790 c-89 -24 -212 -88 -263 -138 -35 -33 -98 -142 -128 -222
-17 -44 -64 -115 -104 -158 -24 -26 -28 -36 -20 -49 6 -9 16 -19 22 -21 23 -7
111 98 148 176 75 160 90 186 130 227 75 77 187 128 319 145 143 18 245 -16
385 -130 41 -33 102 -74 134 -90 68 -34 126 -40 126 -12 -1 23 -21 46 -45 50
-39 7 -111 52 -165 102 -30 28 -46 49 -36 46 16 -6 17 -4 6 9 -7 9 -20 15 -29
14 -9 -1 -47 13 -86 32 -66 31 -77 33 -195 36 -100 2 -140 -1 -199 -17z"/>
<path d="M4407 4755 c-4 -8 -2 -17 3 -20 6 -4 10 3 10 14 0 25 -6 27 -13 6z"/>
<path d="M4000 4740 c-10 -6 -11 -10 -3 -10 9 0 6 -11 -7 -32 -28 -47 -27
-116 4 -161 18 -27 21 -38 13 -48 -10 -11 -9 -11 5 0 13 10 22 10 39 1 29 -16
102 -7 131 16 24 19 28 25 28 45 0 5 4 8 8 5 14 -8 -3 98 -21 131 -10 18 -31
39 -47 48 -33 17 -106 20 -115 5 -3 -5 -11 -10 -16 -10 -6 0 -7 5 -4 10 8 12
4 12 -15 0z m150 -55 c18 -21 3 -55 -24 -55 -33 0 -50 23 -36 49 12 24 42 27
60 6z"/>
<path d="M4385 4709 c-4 -6 -5 -13 -2 -16 7 -7 27 6 27 18 0 12 -17 12 -25 -2z"/>
<path d="M5601 4498 c0 -9 -4 -25 -7 -35 -5 -17 -5 -17 6 0 6 10 9 25 7 35 -4
15 -5 15 -6 0z"/>
<path d="M5104 4455 c-9 -23 3 -45 26 -45 25 0 37 25 20 45 -16 19 -39 19 -46
0z"/>
<path d="M5540 4436 c0 -2 7 -9 15 -16 13 -11 14 -10 9 4 -5 14 -24 23 -24 12z"/>
<path d="M5252 4358 c-17 -17 -15 -36 6 -47 25 -13 44 1 40 30 -3 27 -27 36
-46 17z"/>
<path d="M5104 4296 c-20 -15 -13 -43 12 -53 10 -4 22 1 30 11 24 33 -9 66
-42 42z"/>
<path d="M4392 4288 c-7 -7 -12 -18 -12 -25 0 -15 30 -32 48 -26 17 7 15 50
-4 57 -20 8 -18 8 -32 -6z"/>
<path d="M4105 4189 c-4 -6 -14 -8 -24 -4 -13 5 -14 4 -3 -6 10 -11 15 -10 29
4 10 9 14 17 11 17 -4 0 -10 -5 -13 -11z"/>
<path d="M4246 4154 c-9 -22 17 -49 39 -40 10 3 15 15 13 28 -4 29 -42 37 -52
12z"/>
<path d="M4394 4105 c-9 -23 3 -45 25 -45 20 0 37 32 26 50 -9 15 -45 12 -51
-5z"/>
<path d="M2027 6263 c-12 -11 -8 -23 7 -23 7 0 19 7 26 15 10 12 9 15 -7 15
-11 0 -23 -3 -26 -7z"/>
<path d="M1843 6180 c-32 -19 -45 -50 -22 -50 24 0 78 41 72 56 -7 18 -12 18
-50 -6z"/>
<path d="M1691 6051 c-14 -26 -14 -88 0 -97 18 -10 27 8 31 60 3 53 -13 72
-31 37z"/>
<path d="M1802 5874 c4 -23 99 -59 109 -42 11 17 3 26 -38 43 -47 20 -75 19
-71 -1z"/>
<path d="M2033 5805 c-3 -9 -4 -17 -2 -19 10 -9 108 -34 113 -29 17 17 1 34
-46 48 -63 18 -57 18 -65 0z"/>
<path d="M2267 5736 c-3 -8 0 -19 6 -24 21 -17 89 -42 98 -36 21 12 6 36 -33
54 -52 23 -64 24 -71 6z"/>
<path d="M2485 5630 c-12 -20 65 -107 84 -95 20 12 11 41 -22 73 -34 33 -51
39 -62 22z"/>
<path d="M2573 5418 c-6 -7 -20 -33 -33 -57 -22 -45 -17 -70 14 -58 24 9 57
69 54 96 -3 28 -20 37 -35 19z"/>
<path d="M2383 5233 c-44 -21 -73 -51 -67 -68 4 -8 12 -15 18 -15 21 0 106 59
106 74 0 22 -24 26 -57 9z"/>
<path d="M2133 5109 c-30 -14 -43 -26 -43 -40 0 -29 21 -32 74 -9 38 17 47 26
44 43 -4 28 -23 30 -75 6z"/>
<path d="M1902 5004 c-52 -26 -59 -37 -43 -63 11 -17 63 -1 106 33 25 20 28
26 16 40 -17 21 -18 21 -79 -10z"/>
<path d="M1667 4888 c-41 -24 -48 -60 -14 -66 27 -5 109 46 105 66 -5 25 -48
25 -91 0z"/>
<path d="M1465 4759 c-49 -37 -60 -56 -45 -75 18 -21 28 -18 76 22 47 38 54
58 26 73 -13 7 -27 2 -57 -20z"/>
<path d="M1270 4568 c-33 -45 -38 -75 -15 -85 29 -11 101 79 89 111 -11 28
-43 17 -74 -26z"/>
<path d="M1144 4325 c-17 -51 -17 -57 -1 -72 23 -23 42 -4 57 57 13 54 8 70
-20 70 -14 0 -23 -14 -36 -55z"/>
<path d="M1121 4116 c-13 -16 -4 -98 14 -123 8 -10 19 -14 30 -9 15 5 17 14
11 68 -4 34 -10 66 -12 70 -8 12 -30 9 -43 -6z"/>
<path d="M1177 3865 c-14 -13 -14 -20 -2 -55 29 -81 48 -98 75 -65 11 13 9 24
-10 66 -30 63 -43 74 -63 54z"/>
<path d="M1277 3633 c-13 -12 -7 -32 24 -82 23 -37 38 -51 54 -51 32 0 37 22
13 66 -35 66 -68 91 -91 67z"/>
<path d="M1437 3413 c-26 -26 47 -137 87 -131 37 5 32 48 -12 96 -37 40 -60
51 -75 35z"/>
<path d="M1625 3194 c-15 -15 -14 -18 1 -42 17 -26 63 -69 92 -86 15 -9 42 15
42 37 0 13 -95 107 -108 107 -6 0 -18 -7 -27 -16z"/>
<path d="M1846 2994 c-24 -23 -20 -32 32 -80 54 -50 77 -61 97 -44 24 20 18
37 -26 77 -60 56 -84 67 -103 47z"/>
<path d="M3943 2830 c-40 -24 -53 -48 -53 -97 0 -38 19 -76 50 -100 43 -34
342 -88 448 -81 56 4 68 8 88 32 29 32 32 99 8 134 -30 44 -117 75 -307 111
-136 26 -193 27 -234 1z m274 -86 c180 -35 234 -62 202 -100 -22 -26 -171 -13
-372 32 -71 16 -94 37 -82 74 11 34 53 33 252 -6z"/>
<path d="M2601 1414 c-60 -76 -29 -314 41 -322 41 -5 60 34 66 128 5 89 -10
168 -39 199 -26 28 -43 27 -68 -5z"/>
</g>
</svg>
